<svg xmlns="http://www.w3.org/2000/svg" xmlns:xlink="http://www.w3.org/1999/xlink" version="1.1" x="0px" y="0px" viewBox="0 0 30 37.5" style="enable-background:new 0 0 30 30;" xml:space="preserve" fill="#E79E4F"><g><path d="M23,16.5c-0.3,0-0.5,0.2-0.5,0.5v9.5h-15v-15H17c0.3,0,0.5-0.2,0.5-0.5s-0.2-0.5-0.5-0.5H7c-0.3,0-0.5,0.2-0.5,0.5v16   c0,0.3,0.2,0.5,0.5,0.5h16c0.3,0,0.5-0.2,0.5-0.5V17C23.5,16.7,23.3,16.5,23,16.5z"/><path d="M27.4,7c0-0.3-0.2-0.5-0.5-0.5l-5.7,0c-0.3,0-0.5,0.2-0.5,0.5c0,0.3,0.2,0.5,0.5,0.5l4.5,0L16,17.3c-0.2,0.2-0.2,0.5,0,0.7   c0.2,0.2,0.5,0.2,0.7,0l9.8-9.8l0,4.4c0,0.3,0.2,0.5,0.5,0.5c0.3,0,0.5-0.2,0.5-0.5L27.4,7z"/></g></svg>