<svg width="1607" height="1607" viewBox="0 0 1607 1607" fill="none" xmlns="http://www.w3.org/2000/svg">
<rect x="0.0776367" width="1606.53" height="1606.53" rx="70" fill="#D4DAEA"/>
<g clip-path="url(#clip0_1313_595)">
<path d="M364.851 463.771H596.822C678.163 463.771 753.597 506.158 796.012 575.651C797.24 577.635 795.813 580.175 793.475 580.175H572.008C569.709 580.175 568.282 582.636 569.431 584.62L807.705 1002.73C847.266 1072.1 846.235 1157.51 805.089 1225.93C803.94 1227.88 801.085 1227.84 799.976 1225.89L362.275 468.256C361.125 466.272 362.552 463.771 364.851 463.771Z" fill="#221DDD"/>
<path d="M708.445 669.314H776.348C820.823 669.314 861.811 693.404 883.454 732.298L918.733 795.599L1067.54 543.425C1096.68 494.054 1149.71 463.732 1206.99 463.732H1242.87L921.191 1025.91L708.445 669.314Z" fill="#4C40E7"/>
</g>
<defs>
<clipPath id="clip0_1313_595">
<rect width="880" height="762" fill="white" transform="translate(363.344 464)"/>
</clipPath>
</defs>
</svg>
